<svg width="32mm" height="32mm" version="1.1" viewBox="0 0 32 32" xmlns="http://www.w3.org/2000/svg">
 <g transform="translate(-1.42 -.507)">
  <g transform="matrix(.0919 0 0 .0919 1.42 .507)">
   <path class="active-path" d="m337 68.6-106 106 106 106c15.7 15.7 15.7 41.1 0 56.8-7.84 7.84-18.1 11.8-28.4 11.8-10.3 0-20.6-3.92-28.4-11.8l-106-106-106 106c-7.84 7.84-18.1 11.8-28.4 11.8-10.3 0-20.6-3.92-28.4-11.8-15.7-15.7-15.7-41.1 0-56.8l106-106-106-106c-15.7-15.7-15.7-41.1 0-56.8 15.7-15.7 41.1-15.7 56.8 0l106 106 106-106c15.7-15.7 41.1-15.7 56.8 0 15.7 15.7 15.7 41.1 6e-3 56.8z" fill="#939ea2" data-old_color="#000000" data-original="#000000"/>
  </g>
 </g>
</svg>
