<svg width="32" height="32" version="1.1" viewBox="0 0 31.9 31.9" xmlns="http://www.w3.org/2000/svg">
 <g transform="matrix(.0625 0 0 .0625 -.000378 -1.22e-5)">
  <path transform="matrix(15.9 0 0 15.9 .00605 .000195)" d="m27.1 0.00195c-1.24-0.0265-2.5 0.412-3.49 1.32-1.17 1.07-3.05 2.92-5.13 5.02l-9.53-4.46c-0.324-0.152-0.706-0.106-0.986 0.117l-4.4 3.52c-0.516 0.412-0.458 1.22 0.111 1.55l8.95 5.24c-2.28 2.34-4.21 4.33-5.02 5.18l-3.63-1.09c-0.297-0.0895-0.618-0.0264-0.859 0.168l-2.75 2.21c-0.476 0.382-0.466 1.11 0.0176 1.48l6.45 4.94 4.94 6.45c0.371 0.484 1.1 0.494 1.48 0.0176l2.21-2.75c0.194-0.242 0.257-0.564 0.168-0.861l-1.09-3.63c0.854-0.824 2.89-2.79 5.27-5.11l5.49 9.37c0.334 0.569 1.14 0.628 1.55 0.111l3.52-4.4c0.223-0.28 0.269-0.662 0.117-0.986l-4.68-9.99c2.04-2.03 3.84-3.86 4.9-5.01 1.82-1.98 1.75-5.02-0.148-6.92-0.95-0.95-2.18-1.44-3.43-1.47zm-0.041 1.88c0.776 0.0164 1.55 0.322 2.14 0.914 1.19 1.18 1.23 3.08 0.0938 4.31-3.08 3.36-13 12.9-16.2 16.1l-4.56 0.293 0.293-4.56c3.13-3.24 12.8-13.2 16.1-16.2 0.618-0.567 1.4-0.841 2.18-0.824zm-18.4 1.94 8.39 3.93c-1.03 1.05-2.09 2.12-3.1 3.15l-8.17-4.79zm15.7 11 4.14 8.85-2.3 2.88-5.04-8.59c1.05-1.03 2.13-2.09 3.19-3.14zm-9.65 1.54c-0.241-8e-6 -0.48 0.0916-0.664 0.275l-2.43 2.43c-0.368 0.367-0.368 0.964 0 1.33 0.368 0.368 0.964 0.368 1.33 0l2.43-2.43c0.368-0.367 0.368-0.963 0-1.33-0.184-0.184-0.425-0.275-0.666-0.275zm-10.8 1.98 2.99 0.9-0.223 3.46-4.2-3.21zm8.88 6.79 0.9 2.99-1.15 1.43-3.22-4.2z" fill="#939ea2" stroke-width=".0627"/>
 </g>
</svg>
